#!OML:ASF E:\Mandelcareful walks\Project 1\Capture day 1\Session 1\Subject1.ASF
:FULLY-SPECIFIED
:DEGREES
241
root 24.8034 15.6864 2.2112 113.413 87.0062 113.165
lowerback 31.0236 -0.664253 1.05284
upperback 10.9715 0.559987 -1.08284
thorax -4.56311 0.807415 -2.03812
lowerneck -25.5558 3.88738 -1.361
upperneck 20.4833 8.52625 -8.94697
head 11.2898 2.65334 -1.59318
rclavicle 2.60408e-014 -1.70955e-014
rhumerus -20.1683 7.06545 -78.7042
rradius 71.6454
rwrist -16.1998
rhand -14.5619 -17.6172
rfingers 7.12502
rthumb 11.5873 -47.2768
lclavicle 2.60408e-014 -1.70955e-014
lhumerus -34.4409 -13.1111 76.8087
lradius 55.7312
lwrist 19.7108
lhand -29.0439 -17.1094
lfingers 7.12502
lthumb -2.39407 12.8569
rfemur -23.2031 -14.0545 13.2252
rtibia 53.2176
rfoot -25.9796 -3.67256
rtoes 5.78034
lfemur -35.8965 6.87162 -9.39773
ltibia 35.6413
lfoot -16.5003 12.5899
ltoes -3.71915
242
root 25.0167 15.6756 2.10754 110.026 87.248 109.54
lowerback 30.4831 -0.351926 0.805881
upperback 11.2986 0.908627 -1.05245
thorax -3.93768 0.988975 -1.95902
lowerneck -26.1735 3.90458 -1.48075
upperneck 20.2353 8.51818 -8.72688
head 11.2896 2.65638 -1.48766
rclavicle -5.96354e-015 -1.41137e-014
rhumerus -19.4178 6.88082 -78.6296
rradius 72.1239
rwrist -16.165
rhand -14.352 -18.2532
rfingers 7.12502
rthumb 11.7897 -47.9013
lclavicle -5.96354e-015 -1.41137e-014
lhumerus -34.3707 -12.7114 76.8001
lradius 56.1506
lwrist 19.5707
lhand -28.9535 -17.6862
lfingers 7.12502
lthumb -2.30678 12.2811
rfemur -22.5412 -13.6517 12.8657
rtibia 53.146
rfoot -26.2494 -3.90056
rtoes 4.8878
lfemur -35.9631 7.20686 -9.52981
ltibia 35.8457
lfoot -16.355 12.6547
ltoes -3.6011
243
root 25.2242 15.6667 1.99433 108.355 87.6331 107.577
lowerback 30.4904 -0.0690983 0.810173
upperback 11.253 1.26179 -0.988917
thorax -3.98032 1.1543 -2.00655
lowerneck -26.5943 3.69705 -1.85452
upperneck 20.3715 8.18671 -7.98381
head 11.3416 2.54904 -1.21169
rclavicle 1.68967e-014 -7.35503e-015
rhumerus -19.2348 6.70214 -78.5711
rradius 72.5182
rwrist -16.2544
rhand -14.0743 -18.3506
rfingers 7.12502
rthumb 12.0575 -47.9832
lclavicle 1.68967e-014 -7.35503e-015
lhumerus -34.8188 -12.6423 77.0235
lradius 56.6445
lwrist 19.7395
lhand -29.0404 -18.0972
lfingers 7.12502
lthumb -2.39072 11.8691
rfemur -21.9477 -13.308 12.6524
rtibia 53.0717
rfoot -26.4243 -3.89423
rtoes 4.15838
lfemur -36.1307 7.55636 -9.59932
ltibia 36.3615
lfoot -15.8925 12.3072
ltoes -3.78336
244
root 25.4261 15.6515 1.8705 107.332 88.2584 106.175
lowerback 30.5235 0.168837 1.02671
upperback 11.1398 1.61215 -0.858613
thorax -4.10891 1.31531 -2.10418
lowerneck -26.4122 3.89526 -1.37313
upperneck 19.676 8.42666 -8.82486
head 11.1286 2.62889 -1.55177
rclavicle -2.04748e-014 -1.98785e-016
rhumerus -19.0475 6.63177 -78.4864
rradius 72.6878
rwrist -16.4005
rhand -14.3302 -17.6182
rfingers 7.12502
rthumb 11.8107 -47.2651
lclavicle -2.04748e-014 -1.98785e-016
lhumerus -35.2912 -12.5845 77.3205
lradius 57.1224
lwrist 19.8156
lhand -29.1908 -18.1239
lfingers 7.12502
lthumb -2.53598 11.8408
rfemur -21.4392 -12.9353 12.6735
rtibia 52.9742
rfoot -26.62 -3.70882
rtoes 3.34216
lfemur -36.3747 7.79504 -9.394
ltibia 37.0661
lfoot -15.2267 11.4452
ltoes -3.87836
245
root 25.6256 15.6361 1.72953 87.3083 88.8045 85.6118
lowerback 30.4506 0.519672 1.15905
upperback 10.9801 2.05967 -0.848546
thorax -4.23363 1.51846 -2.31618
lowerneck -26.7236 4.16541 -1.06908
upperneck 19.7324 8.75714 -9.02265
head 11.246 2.76292 -1.61126
rclavicle 2.26615e-014 5.56597e-015
rhumerus -18.8552 6.43728 -78.5057
rradius 72.7734
rwrist -16.5502
rhand -13.9585 -18.1093
rfingers 7.12502
rthumb 12.1691 -47.7354
lclavicle 2.26615e-014 5.56597e-015
lhumerus -35.4847 -12.6423 77.5341
lradius 57.3901
lwrist 19.8803
lhand -29.0168 -17.7508
lfingers 7.12502
lthumb -2.36795 12.2158
rfemur -21.2261 -12.3873 12.5239
rtibia 52.8495
rfoot -26.6584 -3.3527
rtoes 2.41121
lfemur -36.7125 7.94166 -9.18219
ltibia 37.9195
lfoot -13.9872 10.5082
ltoes -4.16196
246
root 25.821 15.6343 1.58968 82.4481 88.9038 80.2984
lowerback 30.5575 0.744692 0.990542
upperback 10.8005 2.27184 -0.894636
thorax -4.47905 1.6048 -2.34905
lowerneck -26.6469 4.2567 -1.1087
upperneck 19.4405 8.81082 -8.86786
head 11.1122 2.81887 -1.53883
rclavicle -1.41137e-014 1.0138e-014
rhumerus -18.7301 6.14845 -78.5935
rradius 72.8024
rwrist -16.6052
rhand -14.1625 -18.0372
rfingers 7.12502
rthumb 11.9725 -47.6748
lclavicle -1.41137e-014 1.0138e-014
lhumerus -35.5697 -12.796 77.786
lradius 57.4786
lwrist 19.9658
lhand -28.7871 -17.8604
lfingers 7.12502
lthumb -2.14608 12.1085
rfemur -20.8087 -12.2908 11.9016
rtibia 52.7493
rfoot -26.6034 -2.91511
rtoes 1.44446
lfemur -37.2253 7.85608 -9.42049
ltibia 38.8962
lfoot -11.8854 9.53448
ltoes -5.09839
247
root 26.0251 15.6479 1.44464 82.6957 88.9552 80.1183
lowerback 30.6 0.931652 0.718582
upperback 10.6905 2.41777 -0.889296
thorax -4.62645 1.66159 -2.23977
lowerneck -26.7541 4.33371 -1.12185
upperneck 19.2137 8.90477 -8.89426
head 11.052 2.86431 -1.52762
rclavicle -6.55989e-015 1.72943e-014
rhumerus -18.651 5.95779 -78.5719
rradius 72.9096
rwrist -16.5723
rhand -14.4677 -17.6052
rfingers 7.12502
rthumb 11.6781 -47.2598
lclavicle -6.55989e-015 1.72943e-014
lhumerus -35.4771 -12.9087 78.1985
lradius 57.33
lwrist 19.7426
lhand -28.7998 -18.4402
lfingers 7.12502
lthumb -2.1584 11.5286
rfemur -20.3435 -12.3828 11.161
rtibia 52.6984
rfoot -26.4191 -2.44163
rtoes -0.132893
lfemur -37.8657 7.9634 -9.83727
ltibia 40.0202
lfoot -10.0171 8.71778
ltoes -5.75815
248
root 26.2193 15.6521 1.29632 65.6095 88.7862 62.4705
lowerback 29.0595 1.18472 0.405166
upperback 11.7232 2.73787 -1.02834
thorax -2.75223 1.88012 -2.20973
lowerneck -27.7686 4.32953 -1.20296
upperneck 18.4007 8.90815 -9.04395
head 10.9358 2.84744 -1.55449
rclavicle -2.48481e-014 5.96354e-015
rhumerus -16.6971 5.34107 -78.3876
rradius 72.7909
rwrist -16.6587
rhand -14.4838 -17.5386
rfingers 7.12502
rthumb 11.6626 -47.194
lclavicle -2.48481e-014 5.96354e-015
lhumerus -33.174 -12.9936 78.2086
lradius 56.7434
lwrist 19.5348
lhand -28.8037 -18.5543
lfingers 7.12502
lthumb -2.16211 11.4145
rfemur -20.3246 -12.2405 10.3444
rtibia 52.7941
rfoot -25.9854 -2.08236
rtoes -2.38709
lfemur -38.6159 8.56483 -10.4561
ltibia 41.2874
lfoot -8.66758 8.12438
ltoes -5.30299
249
root 26.4091 15.6477 1.14732 49.2869 88.4899 45.5816
lowerback 28.6504 1.54313 -0.0666733
upperback 11.8639 3.06891 -1.16113
thorax -2.40645 2.03659 -2.15812
lowerneck -27.8988 4.425 -1.00918
upperneck 17.9685 8.95082 -9.18758
head 10.817 2.87953 -1.62696
rclavicle 0 -9.93923e-016
rhumerus -16.1214 5.0332 -78.5046
rradius 72.7614
rwrist -16.8398
rhand -14.4539 -17.8189
rfingers 7.12502
rthumb 11.6914 -47.4727
lclavicle 0 -9.93923e-016
lhumerus -32.2509 -13.5206 78.3249
lradius 56.4132
lwrist 19.5179
lhand -28.5781 -18.2335
lfingers 7.12502
lthumb -1.94423 11.7374
rfemur -20.4563 -12.0116 9.58282
rtibia 53.0666
rfoot -25.3959 -1.67183
rtoes -4.04691
lfemur -39.3841 9.50694 -11.1375
ltibia 42.6856
lfoot -7.50784 7.55987
ltoes -6.13042
250
root 26.602 15.6521 0.986947 36.3269 88.3271 32.2127
lowerback 28.9825 1.822 -0.217968
upperback 11.632 3.34693 -1.22758
thorax -2.81165 2.15383 -2.25362
lowerneck -27.8989 4.45632 -0.952965
upperneck 17.7965 8.93725 -9.14737
head 10.7517 2.89035 -1.62348
rclavicle -1.0138e-014 2.26615e-014
rhumerus -16.2435 4.74145 -78.6144
rradius 72.7159
rwrist -16.9225
rhand -14.3026 -17.8248
rfingers 7.12502
rthumb 11.8373 -47.4702
lclavicle -1.0138e-014 2.26615e-014
lhumerus -31.8135 -14.4533 78.5983
lradius 56.2252
lwrist 19.5044
lhand -28.0967 -17.3755
lfingers 7.12502
lthumb -1.47931 12.5991
rfemur -20.5153 -12.0897 8.91977
rtibia 53.5682
rfoot -24.5481 -0.963715
rtoes -5.00664
lfemur -40.051 10.486 -11.7577
ltibia 44.1675
lfoot -6.74157 6.79314
ltoes -8.18021
251
root 26.7919 15.6621 0.823363 31.5841 88.2516 27.1485
lowerback 29.3716 1.98828 -0.28074
upperback 11.4205 3.50846 -1.34075
thorax -3.21612 2.22118 -2.42167
lowerneck -28.0439 4.48368 -0.924896
upperneck 17.7628 8.91733 -8.98623
head 10.753 2.89898 -1.57222
rclavicle 9.34288e-015 -3.97569e-014
rhumerus -16.3272 4.3629 -78.7283
rradius 72.4311
rwrist -16.891
rhand -14.0887 -17.6217
rfingers 7.12502
rthumb 12.0436 -47.2552
lclavicle 9.34288e-015 -3.97569e-014
lhumerus -31.2826 -15.63 78.8062
lradius 56.0367
lwrist 19.3553
lhand -27.7654 -16.9707
lfingers 7.12502
lthumb -1.15938 13.0059
rfemur -20.6539 -12.6205 8.11524
rtibia 54.3773
rfoot -23.3038 -0.180243
rtoes -5.7915
lfemur -40.5736 11.2741 -12.557
ltibia 45.6349
lfoot -6.59234 6.03203
ltoes -8.16912
252
root 26.9788 15.6654 0.663278 31.05 88.1334 26.3784
lowerback 29.7324 2.14437 -0.50117
upperback 11.23 3.61637 -1.45756
thorax -3.5938 2.25977 -2.48715
lowerneck -28.314 4.5347 -0.858789
upperneck 18.0264 8.94489 -8.79423
head 10.8883 2.91657 -1.50666
rclavicle 1.2921e-014 -1.15295e-014
rhumerus -16.3694 4.04535 -78.858
rradius 72.0994
rwrist -16.7263
rhand -13.8632 -17.7569
rfingers 7.12502
rthumb 12.261 -47.3775
lclavicle 1.2921e-014 -1.15295e-014
lhumerus -30.8255 -16.9495 78.9811
lradius 55.9242
lwrist 19.1784
lhand -27.8577 -17.5826
lfingers 7.12502
lthumb -1.24852 12.3935
rfemur -20.9197 -13.3163 7.17431
rtibia 55.5612
rfoot -21.7222 0.633233
rtoes -6.40635
lfemur -40.8809 11.8947 -13.4214
ltibia 47.0541
lfoot -7.13725 5.6224
ltoes -6.4733
253
root 27.1606 15.6673 0.505426 28.831 88.099 24.1157
lowerback 30.3337 2.2272 -0.689482
upperback 11.0736 3.64801 -1.50593
thorax -4.04783 2.2639 -2.48579
lowerneck -28.6866 4.74524 -0.751392
upperneck 18.1774 9.27486 -8.97796
head 11.0425 3.03133 -1.52644
rclavicle -3.97569e-016 2.52457e-014
rhumerus -16.3754 3.85442 -79.0092
rradius 71.7826
rwrist -16.4025
rhand -13.8084 -17.8359
rfingers 7.12502
rthumb 12.3139 -47.4533
lclavicle -3.97569e-016 2.52457e-014
lhumerus -30.3993 -18.1936 79.1221
lradius 56.0431
lwrist 19.0502
lhand -27.9348 -18.1886
lfingers 7.12502
lthumb -1.32291 11.7871
rfemur -21.253 -14.0378 6.33532
rtibia 57.1105
rfoot -19.8737 1.28635
rtoes -7.27047
lfemur -40.9638 12.2252 -14.025
ltibia 48.3783
lfoot -8.06503 5.41775
ltoes -3.18915
254
root 27.3258 15.6746 0.350382 19.4599 87.5404 14.5762
lowerback 30.9364 2.54014 -1.00689
upperback 10.842 3.90927 -1.57389
thorax -4.58489 2.36934 -2.51298
lowerneck -28.8065 4.87894 -0.5926
upperneck 18.1228 9.43208 -9.12623
head 11.068 3.09354 -1.57512
rclavicle -2.16675e-014 -1.31198e-014
rhumerus -16.3089 3.69653 -79.2196
rradius 71.2516
rwrist -16.057
rhand -14.2883 -17.2186
rfingers 7.12502
rthumb 11.8511 -46.8633
lclavicle -2.16675e-014 -1.31198e-014
lhumerus -29.8605 -19.3071 79.1191
lradius 56.3507
lwrist 18.7346
lhand -27.6509 -18.2778
lfingers 7.12502
lthumb -1.04878 11.6994
rfemur -22.3626 -14.349 5.72849
rtibia 59.0064
rfoot -17.7354 1.62907
rtoes -8.05663
lfemur -41.1152 12.849 -14.4434
ltibia 49.6028
lfoot -9.04525 5.29956
ltoes -0.320959
255
root 27.4869 15.6801 0.201661 14.5741 87.2334 9.57394
lowerback 31.7538 2.74781 -1.17178
upperback 10.4476 4.05924 -1.59281
thorax -5.40371 2.41373 -2.56287
lowerneck -28.7552 4.93473 -0.641151
upperneck 18.143 9.53838 -9.15113
head 11.0717 3.13615 -1.55749
rclavicle -3.4191e-014 2.84262e-014
rhumerus -16.4315 3.51478 -79.3782
rradius 70.6411
rwrist -15.8426
rhand -14.9961 -16.2745
rfingers 7.12502
rthumb 11.1686 -45.9572
lclavicle -3.4191e-014 2.84262e-014
lhumerus -29.4633 -20.487 79.1361
lradius 56.7933
lwrist 18.244
lhand -27.378 -17.9464
lfingers 7.12502
lthumb -0.785213 12.0319
rfemur -23.53 -14.8969 5.18071
rtibia 61.1603
rfoot -15.7025 1.70437
rtoes -8.3061
lfemur -41.1811 13.188 -14.8291
ltibia 50.6593
lfoot -9.89365 5.08184
ltoes 0.69728
